<svg width="152" height="27" viewBox="0 0 152 27" fill="none" xmlns="http://www.w3.org/2000/svg">
<rect width="151.98" height="26.1471" fill="#D0021B" fill-opacity="0.01"/>
<path fill-rule="evenodd" clip-rule="evenodd" d="M8.91207 19.4069C8.91207 19.4069 10.3158 19.4218 11.4696 18.8147C11.7596 18.6557 12.0348 18.4828 12.2793 18.2775C12.91 17.7464 13.3589 17.1263 13.6629 16.355L10.935 13.6271L10.9254 13.9197C10.8791 14.5512 10.7787 14.9906 10.6485 15.3182C10.4066 15.7968 9.70606 16.5768 7.70143 16.5768L7.69794 16.5821H4.19093C3.44236 16.5821 2.83355 15.9733 2.83355 15.2238V10.9805C2.83355 10.231 3.44236 9.62222 4.19093 9.62222H8.92692V4.88623C8.92692 4.13766 9.53574 3.52797 10.2852 3.52797H14.5285C15.278 3.52797 15.8868 4.13766 15.8868 4.88623V5.16225H18.7116V4.88623C18.7116 2.57938 16.8354 0.704025 14.5285 0.704025H10.2852C7.9792 0.704025 6.1021 2.57938 6.1021 4.88623V6.7974H4.19093C1.88496 6.7974 0.00872803 8.67362 0.00872803 10.9805V15.2238C0.00872803 17.5307 1.88496 19.4069 4.19093 19.4069H8.91207Z" fill="#33BE8C"/>
<path fill-rule="evenodd" clip-rule="evenodd" d="M16.9612 6.79739C16.0606 6.79739 15.3007 6.90833 14.7312 7.03149C14.56 7.06904 14.4194 7.10573 14.2901 7.14067C13.918 7.2551 13.5913 7.41232 13.3502 7.54771C13.3223 7.56256 13.2926 7.5809 13.2637 7.5975C13.1668 7.65864 13.0733 7.72153 12.9799 7.78617C12.8873 7.8543 12.806 7.91632 12.7493 7.96174C12.102 8.53212 11.6539 9.20994 11.3666 10.0633L14.1713 12.8689L14.1896 12.2846C14.215 11.9387 14.256 11.6513 14.3075 11.4059L14.4281 10.9691C14.4971 10.7717 14.5748 10.6127 14.6578 10.4826C14.7137 10.3979 14.774 10.3131 14.8482 10.2336C14.9618 10.1122 15.0657 10.0328 15.1784 9.9585C15.2099 9.93579 15.2448 9.91483 15.278 9.89387C15.5601 9.73402 15.9147 9.62484 16.3777 9.62484C16.4249 9.62484 16.4589 9.62222 16.5026 9.62222H20.6237C21.3722 9.62222 21.981 10.231 21.981 10.9805V15.2238C21.981 15.9733 21.3722 16.5821 20.6237 16.5821H15.8868V21.3189C15.8868 22.0666 15.278 22.6763 14.5285 22.6763H10.2852C9.53575 22.6763 8.92693 22.0666 8.92693 21.3189V21.16H6.10211V21.3189C6.10211 23.6249 7.97921 25.5003 10.2852 25.5003H14.5285C16.8354 25.5003 18.7116 23.6249 18.7116 21.3189V19.4069H20.6237C22.9296 19.4069 24.8059 17.5307 24.8059 15.2238V10.9805C24.8059 8.67362 22.9296 6.79739 20.6237 6.79739H16.9612Z" fill="#398DE3"/>
<path fill-rule="evenodd" clip-rule="evenodd" d="M151.802 4.50452H151.341L150.844 5.85666C150.72 6.20954 150.621 6.51701 150.545 6.79827H150.538C150.462 6.50827 150.372 6.20081 150.256 5.85666L149.779 4.50452H149.318L149.123 7.29964H149.467L149.542 6.10123C149.567 5.67847 149.587 5.21378 149.596 4.86614H149.604C149.683 5.19718 149.792 5.55356 149.924 5.95274L150.379 7.28305H150.654L151.147 5.92741C151.289 5.54221 151.4 5.18845 151.498 4.86614H151.507C151.507 5.21029 151.532 5.68284 151.554 6.07328L151.62 7.29964H151.976L151.802 4.50452Z" fill="#4D586B"/>
<path fill-rule="evenodd" clip-rule="evenodd" d="M146.825 4.81285H147.677V7.29964H148.04V4.81285H148.896V4.50452H146.825V4.81285Z" fill="#4D586B"/>
<path fill-rule="evenodd" clip-rule="evenodd" d="M36.8712 11.9404C33.3939 11.3901 32.3955 10.9412 32.3955 9.66851C32.3955 8.29191 34.0822 7.18958 36.424 7.18958C38.5919 7.18958 40.2786 8.1539 40.6918 10.0467H43.652C43.2738 6.57029 40.5197 4.50452 36.424 4.50452C31.6722 4.50452 29.4693 7.22452 29.4693 9.77071C29.4693 13.1109 32.0863 14.1433 36.3881 14.7626C40.7258 15.3479 41.208 16.2772 41.208 17.5167C41.208 19.0662 39.5213 20.4079 36.7672 20.4079C34.221 20.4079 32.1893 19.1352 31.8102 17.0695H28.85C29.3322 20.8219 32.4636 23.1279 36.7672 23.1279C41.001 23.1279 44.0311 20.8901 44.0311 17.3446C44.0311 13.3179 40.7948 12.5606 36.8712 11.9404Z" fill="#4D586B"/>
<path fill-rule="evenodd" clip-rule="evenodd" d="M53.4969 4.50452C48.4718 4.50452 44.5822 8.70506 44.5822 13.8682C44.5822 18.9623 48.4718 23.0938 53.4969 23.0938C58.5578 23.0938 62.4134 18.9623 62.4134 13.8682C62.4134 8.70506 58.5578 4.50452 53.4969 4.50452ZM53.4969 20.4079C50.2275 20.4079 47.5424 17.4826 47.5424 13.8682C47.5424 10.1856 50.2275 7.18958 53.4969 7.18958C56.803 7.18958 59.4881 10.1856 59.4881 13.8682C59.4881 17.4826 56.803 20.4079 53.4969 20.4079Z" fill="#4D586B"/>
<path fill-rule="evenodd" clip-rule="evenodd" d="M79.6619 18.274L75.8745 4.95261H72.8445L69.0588 18.274L65.2723 4.95261H62.2081L67.5093 22.6807H70.5385L74.3267 9.11822L78.1124 22.6807H81.1765L86.4768 4.95261H83.4126L79.6619 18.274Z" fill="#4D586B"/>
<path fill-rule="evenodd" clip-rule="evenodd" d="M88.395 4.95261H91.3202V22.6807H88.395V4.95261Z" fill="#4D586B"/>
<path fill-rule="evenodd" clip-rule="evenodd" d="M137.909 4.50452C132.883 4.50452 128.993 8.70506 128.993 13.8682C128.993 18.9623 132.883 23.0938 137.909 23.0938C142.97 23.0938 146.825 18.9623 146.825 13.8682C146.825 8.70506 142.97 4.50452 137.909 4.50452ZM137.909 20.4079C134.639 20.4079 131.955 17.4826 131.955 13.8682C131.955 10.1856 134.639 7.18958 137.909 7.18958C141.214 7.18958 143.898 10.1856 143.898 13.8682C143.898 17.4826 141.214 20.4079 137.909 20.4079Z" fill="#4D586B"/>
<path fill-rule="evenodd" clip-rule="evenodd" d="M119.141 15.623H124.838C124.117 18.5151 121.706 20.4428 119.125 20.4428C116.68 20.4428 114.098 18.6522 113.341 15.623C113 14.6063 113.168 13.0087 113.168 13.0087C113.548 9.32436 116.371 7.15552 119.296 7.15552C121.81 7.15552 123.599 8.36091 124.564 10.4258H127.661C126.423 6.63929 123.393 4.50452 119.296 4.50452C114.201 4.50452 110.209 8.56706 110.209 13.7651C110.209 18.8942 114.201 23.093 119.125 23.093C123.703 23.093 128.108 19.3064 128.074 13.0087H119.141V15.623Z" fill="#4D586B"/>
<path fill-rule="evenodd" clip-rule="evenodd" d="M105.724 18.4225L96.7707 4.95262H93.8463V22.6807H96.7707V9.56807L105.724 22.6632H108.647V4.93515H105.724V18.4225Z" fill="#4D586B"/>
</svg>
